<mxfile host="app.diagrams.net" modified="2023-12-27T04:39:50.716Z" agent="Mozilla/5.0 (Macintosh; Intel Mac OS X 10_15_7) AppleWebKit/605.1.15 (KHTML, like Gecko) Version/17.1.1 Safari/605.1.15" version="22.1.12" etag="WLI7BuU8q6SKZOHCxXMh" type="github">
  <diagram name="Page-1" id="9uz5TVYoHJbIARjRWk4x">
    <mxGraphModel>
      <root>
        <mxCell id="0" />
        <mxCell id="1" parent="0" />
      </root>
    </mxGraphModel>
  </diagram>
</mxfile>
